<svg width="64" height="56" viewBox="0 0 64 56" fill="none" xmlns="http://www.w3.org/2000/svg">
<path d="M35.776 10.528H28.224V0H35.776V10.528ZM35.776 56H28.224V45.472H35.776V56ZM51.968 31.304V24.696H64V31.304H51.968ZM0 24.696H12.032V31.304H0V24.696ZM15.5 18L6.72 10.528L12.032 5.88L20.5 13.5L15.5 18ZM51.968 50.12L45.312 43L49.5 38.5L57.28 45.472L51.968 50.12ZM12.032 50.12L6.72 45.472L15 38.5L19.5 44L12.032 50.12Z" fill="url(#paint0_linear)"/>
<path opacity="0.3" d="M29.5034 35.527H35.502V36.8955H29.5034V35.527ZM29.5034 32.79H35.502V34.1585H29.5034V32.79Z" fill="#003AA6"/>
<path d="M32.5024 15C31.8126 15 31.1078 15.0547 30.4029 15.1916C26.2639 15.9169 22.9646 18.9686 22.1848 22.7456C21.465 26.3173 22.9047 29.6017 25.5141 31.7228C26.1589 32.2428 26.5038 32.9681 26.5038 33.7345V36.8957C26.5038 38.401 27.8535 39.6326 29.5031 39.6326H29.923C30.1826 40.0479 30.5579 40.3932 31.0109 40.6334C31.4639 40.8735 31.9785 41 32.5024 41C33.0263 41 33.5409 40.8735 33.994 40.6334C34.447 40.3932 34.8223 40.0479 35.0818 39.6326H35.5017C37.1514 39.6326 38.501 38.401 38.501 36.8957V33.7345C38.501 32.9818 38.831 32.2428 39.4608 31.7365C40.5746 30.8419 41.4665 29.7407 42.0768 28.5064C42.6871 27.2722 43.0018 25.9334 43 24.5794C43 19.2833 38.3061 15 32.5024 15ZM35.5017 36.8957H29.5031V35.5272H35.5017V36.8957ZM35.5017 34.1587H29.5031V32.7902H35.5017V34.1587ZM37.4663 29.6975C37.3313 29.807 37.2263 29.9438 37.1064 30.0533H27.8835C27.7635 29.9301 27.6586 29.7933 27.5236 29.6838C25.544 28.069 24.6593 25.6605 25.1391 23.2519C25.679 20.5971 28.0785 18.3938 30.9728 17.8738C31.4827 17.778 31.9925 17.737 32.5024 17.737C36.6415 17.737 40.0007 20.8024 40.0007 24.5794C40.0007 26.5363 39.0859 28.3974 37.4663 29.6975Z" fill="#003AA6"/>
<path d="M31.7529 25.9478H33.2526V30.0532H31.7529V25.9478Z" fill="#003AA6"/>
<path d="M29.0112 24.0047L30.0715 23.0386L33.2537 25.9411L32.1935 26.9086L29.0112 24.0047Z" fill="#003AA6"/>
<path d="M32.8146 26.9218L31.7544 25.9543L34.9352 23.0518L35.9954 24.0193L32.8146 26.9218Z" fill="#003AA6"/>
<defs>
<linearGradient id="paint0_linear" x1="58.5" y1="28.5" x2="32" y2="5.5" gradientUnits="userSpaceOnUse">
<stop stop-color="#76A608"/>
<stop offset="1" stop-color="#A9F200"/>
</linearGradient>
</defs>
</svg>
