<svg width="20" height="18" viewBox="0 0 20 18" fill="none" xmlns="http://www.w3.org/2000/svg">
<path d="M11.3888 0.75H9.2777V9.91667H11.3888V0.75ZM16.4871 2.73917L14.9883 4.04083C16.656 5.205 17.7221 6.9925 17.7221 9C17.7221 12.5475 14.4183 15.4167 10.3333 15.4167C6.24825 15.4167 2.94436 12.5475 2.94436 9C2.94436 6.9925 4.01047 5.205 5.6677 4.03167L4.17936 2.73917C2.13159 4.25167 0.833252 6.48833 0.833252 9C0.833252 13.5558 5.08714 17.25 10.3333 17.25C15.5794 17.25 19.8333 13.5558 19.8333 9C19.8333 6.48833 18.5349 4.25167 16.4871 2.73917Z" fill="#1865F2"/>
</svg>
