<svg width="28" height="27" viewBox="0 0 28 27" fill="none" xmlns="http://www.w3.org/2000/svg">
<path d="M18.0849 17.4278C17.0014 18.4693 15.5321 19.0544 14 19.0544C12.4679 19.0544 10.9986 18.4693 9.91511 17.4278H18.0849ZM9.66667 10.7222H9.68111H9.66667ZM18.3333 10.7222H18.3478H18.3333ZM27 13.5C27 15.1415 26.6637 16.767 26.0104 18.2835C25.3571 19.8001 24.3995 21.1781 23.1924 22.3388C21.9852 23.4996 20.5521 24.4203 18.9749 25.0485C17.3977 25.6767 15.7072 26 14 26C12.2928 26 10.6023 25.6767 9.02512 25.0485C7.44788 24.4203 6.01477 23.4996 4.80761 22.3388C3.60045 21.1781 2.64288 19.8001 1.98957 18.2835C1.33625 16.767 1 15.1415 1 13.5C1 10.1848 2.36964 7.00537 4.80761 4.66117C7.24558 2.31696 10.5522 1 14 1C17.4478 1 20.7544 2.31696 23.1924 4.66117C25.6304 7.00537 27 10.1848 27 13.5Z" stroke="black" stroke-width="2" stroke-linecap="round" stroke-linejoin="round"/>
</svg>
