<svg width="64" height="56" viewBox="0 0 64 56" fill="none" xmlns="http://www.w3.org/2000/svg">
<path d="M34.625 14.5H29.375C28.5448 14.5 27.7438 14.7754 27.1251 15.2735C26.5063 15.7716 26.1132 16.4575 26.021 17.2H23.375C22.4799 17.2 21.6215 17.52 20.9885 18.0897C20.3556 18.6593 20 19.4319 20 20.2375V38.4625C20 39.2681 20.3556 40.0407 20.9885 40.6103C21.6215 41.18 22.4799 41.5 23.375 41.5H40.625C41.0682 41.5 41.5071 41.4214 41.9166 41.2688C42.326 41.1161 42.6981 40.8924 43.0115 40.6103C43.3249 40.3283 43.5735 39.9934 43.7431 39.6249C43.9127 39.2564 44 38.8614 44 38.4625V20.2375C44 19.8386 43.9127 19.4436 43.7431 19.0751C43.5735 18.7066 43.3249 18.3717 43.0115 18.0897C42.6981 17.8076 42.326 17.5839 41.9166 17.4312C41.5071 17.2786 41.0682 17.2 40.625 17.2H37.979C37.8868 16.4575 37.4937 15.7716 36.8749 15.2735C36.2562 14.7754 35.4552 14.5 34.625 14.5ZM29.375 16.525H34.625C34.9234 16.525 35.2095 16.6317 35.4205 16.8216C35.6315 17.0114 35.75 17.269 35.75 17.5375C35.75 17.806 35.6315 18.0636 35.4205 18.2534C35.2095 18.4433 34.9234 18.55 34.625 18.55H29.375C29.0766 18.55 28.7905 18.4433 28.5795 18.2534C28.3685 18.0636 28.25 17.806 28.25 17.5375C28.25 17.269 28.3685 17.0114 28.5795 16.8216C28.7905 16.6317 29.0766 16.525 29.375 16.525ZM32.75 25.6375C32.75 25.369 32.8685 25.1114 33.0795 24.9216C33.2905 24.7317 33.5766 24.625 33.875 24.625H39.125C39.4234 24.625 39.7095 24.7317 39.9205 24.9216C40.1315 25.1114 40.25 25.369 40.25 25.6375C40.25 25.906 40.1315 26.1636 39.9205 26.3534C39.7095 26.5433 39.4234 26.65 39.125 26.65H33.875C33.5766 26.65 33.2905 26.5433 33.0795 26.3534C32.8685 26.1636 32.75 25.906 32.75 25.6375ZM33.875 32.05H39.125C39.4234 32.05 39.7095 32.1567 39.9205 32.3466C40.1315 32.5364 40.25 32.794 40.25 33.0625C40.25 33.331 40.1315 33.5886 39.9205 33.7784C39.7095 33.9683 39.4234 34.075 39.125 34.075H33.875C33.5766 34.075 33.2905 33.9683 33.0795 33.7784C32.8685 33.5886 32.75 33.331 32.75 33.0625C32.75 32.794 32.8685 32.5364 33.0795 32.3466C33.2905 32.1567 33.5766 32.05 33.875 32.05ZM30.17 25.003L27.17 27.703C26.9591 27.8926 26.6731 27.9991 26.375 27.9991C26.0769 27.9991 25.7909 27.8926 25.58 27.703L24.08 26.353C23.9695 26.2603 23.8808 26.1485 23.8193 26.0243C23.7578 25.9001 23.7248 25.7661 23.7221 25.6301C23.7194 25.4942 23.7472 25.3591 23.8038 25.233C23.8604 25.107 23.9446 24.9924 24.0514 24.8963C24.1583 24.8002 24.2855 24.7244 24.4256 24.6734C24.5657 24.6225 24.7157 24.5975 24.8668 24.5999C25.0178 24.6023 25.1668 24.6321 25.3048 24.6874C25.4428 24.7427 25.567 24.8225 25.67 24.922L26.375 25.5565L28.58 23.572C28.683 23.4725 28.8072 23.3927 28.9452 23.3374C29.0832 23.2821 29.2322 23.2523 29.3832 23.2499C29.5343 23.2475 29.6843 23.2725 29.8244 23.3234C29.9645 23.3744 30.0917 23.4502 30.1986 23.5463C30.3054 23.6424 30.3896 23.757 30.4462 23.883C30.5028 24.0091 30.5306 24.1442 30.5279 24.2801C30.5252 24.4161 30.4922 24.5501 30.4307 24.6743C30.3692 24.7985 30.2805 24.9103 30.17 25.003ZM30.17 30.997C30.3807 31.1868 30.499 31.4442 30.499 31.7125C30.499 31.9808 30.3807 32.2382 30.17 32.428L27.17 35.128C26.9591 35.3176 26.6731 35.4241 26.375 35.4241C26.0769 35.4241 25.7909 35.3176 25.58 35.128L24.08 33.778C23.9695 33.6853 23.8808 33.5735 23.8193 33.4493C23.7578 33.3251 23.7248 33.1911 23.7221 33.0551C23.7194 32.9192 23.7472 32.7841 23.8038 32.658C23.8604 32.532 23.9446 32.4174 24.0514 32.3213C24.1583 32.2252 24.2855 32.1494 24.4256 32.0984C24.5657 32.0475 24.7157 32.0225 24.8668 32.0249C25.0178 32.0273 25.1668 32.0571 25.3048 32.1124C25.4428 32.1677 25.567 32.2475 25.67 32.347L26.375 32.9815L28.58 30.997C28.7909 30.8074 29.0769 30.7009 29.375 30.7009C29.6731 30.7009 29.9591 30.8074 30.17 30.997Z" fill="#003AA6"/>
<path d="M35.776 10.528H28.224V0H35.776V10.528ZM35.776 56H28.224V45.472H35.776V56ZM51.968 31.304V24.696H64V31.304H51.968ZM0 24.696H12.032V31.304H0V24.696ZM15.5 18L6.72 10.528L12.032 5.88L20.5 13.5L15.5 18ZM51.968 50.12L45.312 43L49.5 38.5L57.28 45.472L51.968 50.12ZM12.032 50.12L6.72 45.472L15 38.5L19.5 44L12.032 50.12Z" fill="url(#paint0_linear)"/>
<defs>
<linearGradient id="paint0_linear" x1="58.5" y1="28.5" x2="32" y2="5.5" gradientUnits="userSpaceOnUse">
<stop stop-color="#76A608"/>
<stop offset="1" stop-color="#A9F200"/>
</linearGradient>
</defs>
</svg>
