<svg width="64" height="56" viewBox="0 0 64 56" fill="none" xmlns="http://www.w3.org/2000/svg">
<path d="M35.776 10.528H28.224V0H35.776V10.528ZM35.776 56H28.224V45.472H35.776V56ZM51.968 31.304V24.696H64V31.304H51.968ZM0 24.696H12.032V31.304H0V24.696ZM15.5 18L6.72 10.528L12.032 5.88L20.5 13.5L15.5 18ZM51.968 50.12L45.312 43L49.5 38.5L57.28 45.472L51.968 50.12ZM12.032 50.12L6.72 45.472L15 38.5L19.5 44L12.032 50.12Z" fill="url(#paint0_linear)"/>
<path d="M25.7336 22.7481H27.0424C27.4734 22.7481 27.8868 22.8995 28.1916 23.1691C28.4963 23.4387 28.6676 23.8043 28.6676 24.1856C28.6676 24.5668 28.4963 24.9324 28.1916 25.202C27.8868 25.4716 27.4734 25.6231 27.0424 25.6231H21.6252C21.1941 25.6231 20.7808 25.4716 20.476 25.202C20.1712 24.9324 20 24.5668 20 24.1856V19.3939C20 19.0126 20.1712 18.647 20.476 18.3774C20.7808 18.1078 21.1941 17.9564 21.6252 17.9564C22.0562 17.9564 22.4696 18.1078 22.7743 18.3774C23.0791 18.647 23.2503 19.0126 23.2503 19.3939V20.8908C25.2108 18.9257 27.8713 17.6119 30.7913 17.167C33.7112 16.722 36.7154 17.1726 39.3063 18.4441C41.8972 19.7156 43.9194 21.7317 45.0379 24.1586C46.1565 26.5854 46.3043 29.2774 45.457 31.7888C44.6097 34.3001 42.8179 36.4801 40.3786 37.9678C37.9392 39.4554 34.9986 40.1614 32.0436 39.9689C29.0887 39.7764 26.2967 38.6969 24.1301 36.9092C21.9635 35.1215 20.5522 32.7328 20.13 30.1387C20.0691 29.761 20.1803 29.3774 20.4392 29.0722C20.698 28.7671 21.0833 28.5653 21.5103 28.5115C21.9373 28.4576 22.371 28.5559 22.716 28.7849C23.061 29.0139 23.2891 29.3547 23.35 29.7324C23.6672 31.6756 24.7244 33.465 26.3468 34.805C27.9693 36.1449 30.0599 36.9553 32.2734 37.1022C34.4869 37.2491 36.6909 36.7237 38.5212 35.6128C40.3515 34.502 41.6986 32.8721 42.3401 30.9925C42.9816 29.1129 42.879 27.0959 42.0493 25.2748C41.2196 23.4538 39.7124 21.9375 37.7767 20.9765C35.841 20.0155 33.5927 19.6673 31.403 19.9894C29.2134 20.3115 27.2134 21.2846 25.7336 22.7481ZM32.4596 22.7481C32.8906 22.7481 33.304 22.8995 33.6088 23.1691C33.9136 23.4387 34.0848 23.8043 34.0848 24.1856V27.5397H35.7099C36.141 27.5397 36.5543 27.6912 36.8591 27.9608C37.1639 28.2303 37.3351 28.596 37.3351 28.9772C37.3351 29.3585 37.1639 29.7241 36.8591 29.9937C36.5543 30.2633 36.141 30.4147 35.7099 30.4147H32.4596C32.0286 30.4147 31.6152 30.2633 31.3104 29.9937C31.0057 29.7241 30.8344 29.3585 30.8344 28.9772V24.1856C30.8344 23.8043 31.0057 23.4387 31.3104 23.1691C31.6152 22.8995 32.0286 22.7481 32.4596 22.7481Z" fill="#003AA6"/>
<defs>
<linearGradient id="paint0_linear" x1="58.5" y1="28.5" x2="32" y2="5.5" gradientUnits="userSpaceOnUse">
<stop stop-color="#76A608"/>
<stop offset="1" stop-color="#A9F200"/>
</linearGradient>
</defs>
</svg>
