<svg width="31" height="29" viewBox="0 0 31 29" fill="none" xmlns="http://www.w3.org/2000/svg">
<path d="M19.0897 9.85107C19.0898 9.85107 19.0898 9.85107 19.0899 9.85107C19.3551 9.85118 19.6101 9.94794 19.8066 10.1216C19.9204 10.2221 20.01 10.3443 20.0711 10.4792C18.7175 10.8285 17.4426 11.4364 16.319 12.2715C15.0019 13.2502 13.9273 14.5152 13.1777 15.9701C12.4281 17.425 12.0235 19.0309 11.9952 20.6653C11.9756 21.7932 12.1356 22.9139 12.4663 23.9865C11.6954 23.68 10.9975 23.2055 10.4275 22.5919C9.54701 21.6442 9.02634 20.4235 8.95291 19.1388L8.94434 18.8139V10.9124C8.94434 10.9124 8.94434 10.9123 8.94434 10.9123C8.94439 10.6541 9.03989 10.404 9.21417 10.2095C9.38451 10.0194 9.61875 9.89537 9.87472 9.861L10.0419 9.85107H19.0897Z" stroke="white" stroke-width="1.5"/>
<path d="M28.4063 11.7046C26.9396 10.8136 25.2414 10.2608 23.4237 10.1554C23.4057 10.0527 23.384 9.95117 23.3588 9.85107H27.3326C27.3326 9.85107 27.3327 9.85107 27.3328 9.85107C27.5979 9.85118 27.8529 9.94794 28.0495 10.1216C28.2406 10.2904 28.3634 10.5202 28.3978 10.7689L28.4063 10.9318V11.7046Z" stroke="white" stroke-width="1.5"/>
<path d="M5.74963 9.85107C5.69459 10.0699 5.65659 10.2932 5.63628 10.5191L5.63477 10.5359L5.63402 10.5527L5.61941 10.8787L5.61866 10.8955V10.9123V18.8238V18.8327L5.61888 18.8417L5.62801 19.2221L5.62821 19.2307L5.62862 19.2393C5.67412 20.2071 5.87551 21.1342 6.20803 21.9972C5.76622 22.0974 5.31003 22.1308 4.85513 22.0947C4.14269 22.0381 3.45467 21.8129 2.84876 21.4382C2.24289 21.0635 1.73699 20.5505 1.37305 19.9426C1.01131 19.3384 0.80019 18.6577 0.756758 17.9571L0.75 17.6755V10.9124C0.75 10.9124 0.75 10.9123 0.75 10.9123C0.750059 10.6541 0.845553 10.404 1.01983 10.2095C1.19018 10.0194 1.42441 9.89537 1.68039 9.861L1.8476 9.85107H5.74963Z" stroke="white" stroke-width="1.5"/>
<path d="M12.2035 1.71407C12.799 1.12319 13.5989 0.77948 14.4402 0.751811H14.5504C15.4314 0.751811 16.2753 1.09917 16.8965 1.71561C17.5176 2.33187 17.8654 3.16644 17.8654 4.03542C17.8654 4.9044 17.5176 5.73897 16.8965 6.35522C16.2753 6.97167 15.4314 7.31902 14.5504 7.31902C13.669 7.31902 12.825 6.97157 12.2035 6.35496C11.5823 5.73853 11.2344 4.90373 11.2344 4.03451C11.2344 3.16529 11.5823 2.33049 12.2035 1.71407Z" stroke="white" stroke-width="1.5"/>
<path d="M23.6549 1.88721C24.3842 1.88721 25.0825 2.17474 25.5965 2.6847C26.1102 3.19446 26.3977 3.88461 26.3977 4.60299C26.3977 5.32137 26.1102 6.01152 25.5965 6.52129C25.0825 7.03125 24.3842 7.31878 23.6549 7.31878C22.9256 7.31878 22.2273 7.03125 21.7134 6.52129C21.1997 6.01152 20.9121 5.32137 20.9121 4.60299C20.9121 3.88461 21.1997 3.19446 21.7134 2.6847C22.2273 2.17474 22.9256 1.88721 23.6549 1.88721Z" stroke="white" stroke-width="1.5"/>
<path d="M5.47622 1.88721C6.20553 1.88721 6.90381 2.17474 7.41774 2.6847C7.93148 3.19446 8.21903 3.88461 8.21903 4.60299C8.21903 5.32138 7.93148 6.01152 7.41774 6.52129C6.90381 7.03125 6.20553 7.31878 5.47622 7.31878C4.7469 7.31878 4.04862 7.03125 3.53469 6.52129C3.02095 6.01152 2.7334 5.32138 2.7334 4.60299C2.7334 3.88461 3.02095 3.19446 3.53469 2.6847C4.04862 2.17474 4.7469 1.88721 5.47622 1.88721Z" stroke="white" stroke-width="1.5"/>
<path d="M30.2505 20.8493C30.2505 22.8101 29.4655 24.6918 28.0663 26.0802C26.667 27.4687 24.7678 28.2498 22.7864 28.2498C20.8049 28.2498 18.9057 27.4687 17.5064 26.0802C16.1072 24.6918 15.3223 22.8101 15.3223 20.8493C15.3223 18.8884 16.1072 17.0067 17.5064 15.6184C18.9057 14.2298 20.8049 13.4487 22.7864 13.4487C24.7678 13.4487 26.667 14.2298 28.0663 15.6184C29.4655 17.0067 30.2505 18.8884 30.2505 20.8493ZM24.449 17.2268C24.449 16.7858 24.2724 16.3641 23.96 16.054C23.6477 15.7442 23.2255 15.5712 22.7864 15.5712C22.3473 15.5712 21.925 15.7442 21.6127 16.054C21.3003 16.3641 21.1237 16.7858 21.1237 17.2268V19.1936H19.1357C18.6966 19.1936 18.2743 19.3667 17.962 19.6765C17.6496 19.9865 17.473 20.4083 17.473 20.8493C17.473 21.2902 17.6496 21.712 17.962 22.022C18.2743 22.3319 18.6966 22.5049 19.1357 22.5049H21.1237V24.4717C21.1237 24.9127 21.3003 25.3344 21.6127 25.6445C21.925 25.9543 22.3473 26.1273 22.7864 26.1273C23.2255 26.1273 23.6477 25.9543 23.96 25.6445C24.2724 25.3344 24.449 24.9127 24.449 24.4717V22.5049H26.4371C26.8762 22.5049 27.2984 22.3319 27.6107 22.022C27.9231 21.712 28.0997 21.2902 28.0997 20.8493C28.0997 20.4083 27.9231 19.9865 27.6107 19.6765C27.2984 19.3667 26.8762 19.1936 26.4371 19.1936H24.449V17.2268Z" stroke="white" stroke-width="1.5"/>
</svg>
