<svg width="30" height="29" viewBox="0 0 30 29" fill="none" xmlns="http://www.w3.org/2000/svg">
<path d="M28.9994 17.2161C28.9989 17.239 28.9981 17.2564 28.9972 17.2696L28.4998 18.5813H29V28H16V23.0188V22.0188H15H8.01031V20.0281V19.0281H7.01031H1V12.9141C1 11.4086 2.43759 9.97188 4.48454 9.97188C5.91921 9.97188 7.02353 10.6312 7.59968 11.5766L8.2349 12.619L9.13186 11.7911C9.9959 10.9936 11.1509 10.4703 12.4742 10.4703C14.3598 10.4703 15.9025 11.4314 16.588 12.7429L17.1545 13.8269L18.1043 13.0562C19.2608 12.1178 20.7892 11.5578 22.4742 11.5578C26.2269 11.5578 29 14.1768 29 17.1281C29 17.1634 29 17.19 28.9994 17.2161ZM22.4742 8.65156C19.8603 8.65156 18.0103 6.85238 18.0103 4.84844C18.0103 2.83311 19.8731 1 22.4742 1C25.0882 1 26.9897 2.8445 26.9897 4.84844C26.9897 6.84109 25.1011 8.65156 22.4742 8.65156ZM12.4742 7.83594C10.685 7.83594 9.45361 6.5805 9.45361 5.30156C9.45361 4.02263 10.685 2.76719 12.4742 2.76719C14.3237 2.76719 15.5464 4.03029 15.5464 5.30156C15.5464 6.57283 14.3237 7.83594 12.4742 7.83594ZM4.48454 7.42813C3.09694 7.42813 2.18557 6.48047 2.18557 5.52813C2.18557 4.61169 3.1077 3.62813 4.48454 3.62813C5.9022 3.62813 6.7835 4.60221 6.7835 5.52813C6.7835 6.48987 5.91292 7.42813 4.48454 7.42813Z" stroke="white" stroke-width="2"/>
</svg>
