<svg width="20" height="18" viewBox="0 0 20 18" fill="none" xmlns="http://www.w3.org/2000/svg">
<path d="M17.6502 9.8775C17.6888 9.59625 17.7145 9.30375 17.7145 9C17.7145 8.69625 17.6888 8.40375 17.6373 8.1225L19.8102 6.6375C20.0031 6.5025 20.0545 6.255 19.9388 6.06375L17.8816 2.9475C17.753 2.745 17.483 2.6775 17.2516 2.745L14.693 3.645C14.153 3.285 13.5872 2.9925 12.9572 2.7675L12.5715 0.3825C12.5329 0.1575 12.3143 0 12.0572 0H7.94281C7.68566 0 7.47994 0.1575 7.44137 0.3825L7.05565 2.7675C6.42563 2.9925 5.84705 3.29625 5.31989 3.645L2.76126 2.745C2.52982 2.66625 2.25982 2.745 2.13124 2.9475L0.0740529 6.06375C-0.0545216 6.26625 -0.00309159 6.5025 0.202628 6.6375L2.37554 8.1225C2.32411 8.40375 2.28553 8.7075 2.28553 9C2.28553 9.2925 2.31125 9.59625 2.36268 9.8775L0.18977 11.3625C-0.00309189 11.4975 -0.0545215 11.745 0.0611955 11.9362L2.11839 15.0525C2.24696 15.255 2.51697 15.3225 2.7484 15.255L5.30703 14.355C5.84705 14.715 6.41277 15.0075 7.04279 15.2325L7.42851 17.6175C7.47994 17.8425 7.68566 18 7.94281 18H12.0572C12.3143 18 12.5329 17.8425 12.5586 17.6175L12.9444 15.2325C13.5744 15.0075 14.153 14.7038 14.6801 14.355L17.2387 15.255C17.4702 15.3338 17.7402 15.255 17.8688 15.0525L19.9259 11.9362C20.0545 11.7337 20.0031 11.4975 19.7974 11.3625L17.6502 9.8775ZM10 12.375C7.87852 12.375 6.14277 10.8562 6.14277 9C6.14277 7.14375 7.87852 5.625 10 5.625C12.1215 5.625 13.8572 7.14375 13.8572 9C13.8572 10.8562 12.1215 12.375 10 12.375Z" fill="black"/>
</svg>
