<svg width="31" height="29" viewBox="0 0 31 29" fill="none" xmlns="http://www.w3.org/2000/svg">
<path d="M27.125 29H3.875C2.80534 29 1.89209 28.646 1.13525 27.938C0.378418 27.23 0 26.3757 0 25.375V3.625C0 2.62435 0.378418 1.77002 1.13525 1.06201C1.89209 0.354004 2.80534 0 3.875 0H27.125C28.1947 0 29.1079 0.354004 29.8647 1.06201C30.6216 1.77002 31 2.62435 31 3.625V25.375C31 26.3757 30.6216 27.23 29.8647 27.938C29.1079 28.646 28.1947 29 27.125 29ZM9.6875 20.8438C9.6875 20.5983 9.59163 20.3859 9.3999 20.2065C9.20817 20.0272 8.98112 19.9375 8.71875 19.9375H6.78125C6.51888 19.9375 6.29183 20.0272 6.1001 20.2065C5.90837 20.3859 5.8125 20.5983 5.8125 20.8438V24.4688C5.8125 24.7142 5.90837 24.9266 6.1001 25.106C6.29183 25.2853 6.51888 25.375 6.78125 25.375H8.71875C8.98112 25.375 9.20817 25.2853 9.3999 25.106C9.59163 24.9266 9.6875 24.7142 9.6875 24.4688V20.8438ZM17.4375 13.5938C17.4375 13.3483 17.3416 13.1359 17.1499 12.9565C16.9582 12.7772 16.7311 12.6875 16.4688 12.6875H14.5312C14.2689 12.6875 14.0418 12.7772 13.8501 12.9565C13.6584 13.1359 13.5625 13.3483 13.5625 13.5938V24.4688C13.5625 24.7142 13.6584 24.9266 13.8501 25.106C14.0418 25.2853 14.2689 25.375 14.5312 25.375H16.4688C16.7311 25.375 16.9582 25.2853 17.1499 25.106C17.3416 24.9266 17.4375 24.7142 17.4375 24.4688V13.5938ZM25.1875 4.53125C25.1875 4.28581 25.0916 4.0734 24.8999 3.89404C24.7082 3.71468 24.4811 3.625 24.2188 3.625H22.2812C22.0189 3.625 21.7918 3.71468 21.6001 3.89404C21.4084 4.0734 21.3125 4.28581 21.3125 4.53125V24.4688C21.3125 24.7142 21.4084 24.9266 21.6001 25.106C21.7918 25.2853 22.0189 25.375 22.2812 25.375H24.2188C24.4811 25.375 24.7082 25.2853 24.8999 25.106C25.0916 24.9266 25.1875 24.7142 25.1875 24.4688V4.53125Z" fill="black"/>
</svg>
