<svg width="31" height="29" viewBox="0 0 31 29" fill="none" xmlns="http://www.w3.org/2000/svg">
<path d="M27.125 28H3.875C3.05001 28 2.3835 27.7364 1.81841 27.2077C1.25555 26.6812 1 26.0879 1 25.375V3.625C1 2.91209 1.25555 2.31883 1.81841 1.79228C2.3835 1.26365 3.05001 1 3.875 1H27.125C27.95 1 28.6165 1.26365 29.1816 1.79228C29.7444 2.31883 30 2.91209 30 3.625V25.375C30 26.0879 29.7444 26.6812 29.1816 27.2077C28.6165 27.7364 27.95 28 27.125 28ZM10.6875 20.8438C10.6875 20.3006 10.4612 19.83 10.0831 19.4763C9.70621 19.1237 9.235 18.9375 8.71875 18.9375H6.78125C6.265 18.9375 5.79379 19.1237 5.41694 19.4763C5.03885 19.83 4.8125 20.3006 4.8125 20.8438V24.4688C4.8125 25.0119 5.03885 25.4825 5.41694 25.8362C5.79379 26.1888 6.265 26.375 6.78125 26.375H8.71875C9.235 26.375 9.70621 26.1888 10.0831 25.8362C10.4612 25.4825 10.6875 25.0119 10.6875 24.4688V20.8438ZM18.4375 13.5938C18.4375 13.0507 18.2112 12.58 17.8331 12.2263C17.4562 11.8737 16.985 11.6875 16.4688 11.6875H14.5312C14.015 11.6875 13.5438 11.8737 13.1669 12.2263C12.7888 12.58 12.5625 13.0507 12.5625 13.5938V24.4688C12.5625 25.0119 12.7888 25.4825 13.1669 25.8362C13.5438 26.1888 14.015 26.375 14.5312 26.375H16.4688C16.985 26.375 17.4562 26.1888 17.8331 25.8362C18.2112 25.4825 18.4375 25.0119 18.4375 24.4688V13.5938ZM26.1875 4.53125C26.1875 3.98815 25.9612 3.51747 25.5831 3.16377C25.2062 2.81123 24.735 2.625 24.2188 2.625H22.2812C21.765 2.625 21.2938 2.81123 20.9169 3.16377C20.5388 3.51747 20.3125 3.98815 20.3125 4.53125V24.4688C20.3125 25.0119 20.5388 25.4825 20.9169 25.8362C21.2938 26.1888 21.765 26.375 22.2812 26.375H24.2188C24.735 26.375 25.2062 26.1888 25.5831 25.8362C25.9612 25.4825 26.1875 25.0119 26.1875 24.4688V4.53125Z" stroke="white" stroke-width="2"/>
</svg>
