<svg width="27" height="25" viewBox="0 0 27 25" fill="none" xmlns="http://www.w3.org/2000/svg">
<path d="M24.6375 0C25.9416 0 27 0.979746 27 2.18973V5.9961C27.0001 6.62491 26.8143 7.24173 26.4628 7.77954C26.1112 8.31736 25.6074 8.75561 25.0061 9.0467L16.5254 13.1509C17.8841 13.7823 18.9731 14.8203 19.6161 16.0967C20.2592 17.3732 20.4186 18.8135 20.0686 20.1844C19.7185 21.5553 18.8796 22.7766 17.6875 23.6506C16.4954 24.5245 15.0199 25 13.5 25C11.9801 25 10.5046 24.5245 9.31252 23.6506C8.12042 22.7766 7.28145 21.5553 6.93143 20.1844C6.5814 18.8135 6.74081 17.3732 7.38386 16.0967C8.0269 14.8203 9.11593 13.7823 10.4747 13.1509L1.99395 9.0467C1.39259 8.75561 0.888776 8.31736 0.537246 7.77954C0.185715 7.24173 -9.47323e-05 6.62491 3.62329e-08 5.9961V2.18973C3.62329e-08 0.979746 1.0584 0 2.3625 0H24.6375ZM13.5 14.3646C12.2469 14.3646 11.045 14.826 10.1589 15.6473C9.27281 16.4686 8.775 17.5826 8.775 18.7441C8.775 19.9056 9.27281 21.0195 10.1589 21.8408C11.045 22.6621 12.2469 23.1235 13.5 23.1235C14.7531 23.1235 15.955 22.6621 16.8411 21.8408C17.7272 21.0195 18.225 19.9056 18.225 18.7441C18.225 17.5826 17.7272 16.4686 16.8411 15.6473C15.955 14.826 14.7531 14.3646 13.5 14.3646ZM18.225 1.87691H8.775V10.2129L13.3434 12.4239C13.3917 12.4473 13.4455 12.4596 13.5 12.4596C13.5545 12.4596 13.6083 12.4473 13.6566 12.4239L18.225 10.2104V1.87691ZM6.75 1.87691H2.3625C2.27299 1.87691 2.18714 1.90987 2.12385 1.96853C2.06056 2.0272 2.025 2.10676 2.025 2.18973V5.99735C2.025 6.58044 2.37465 7.11473 2.93085 7.38376L6.75 9.23063V1.87566V1.87691ZM24.6375 1.87691H20.25V9.23189L24.0692 7.38251C24.3424 7.25015 24.5712 7.05095 24.7309 6.80654C24.8906 6.56213 24.975 6.28184 24.975 5.9961V2.18973C24.975 2.10676 24.9394 2.0272 24.8762 1.96853C24.8129 1.90987 24.727 1.87691 24.6375 1.87691Z" fill="white"/>
</svg>
