<svg width="21" height="18" viewBox="0 0 21 18" fill="none" xmlns="http://www.w3.org/2000/svg">
<path d="M17.8697 9.85795C17.9077 9.58295 17.9331 9.29695 17.9331 8.99995C17.9331 8.70295 17.9077 8.41695 17.8571 8.14195L19.9977 6.68995C20.1877 6.55795 20.2384 6.31595 20.1244 6.12895L18.0977 3.08195C17.9711 2.88395 17.7051 2.81795 17.4771 2.88395L14.9564 3.76395C14.4244 3.41195 13.8671 3.12595 13.2464 2.90595L12.8664 0.573951C12.8284 0.353951 12.6131 0.199951 12.3597 0.199951H8.3064C8.05306 0.199951 7.8504 0.353951 7.8124 0.573951L7.4324 2.90595C6.81173 3.12595 6.24173 3.42295 5.7224 3.76395L3.20173 2.88395C2.97373 2.80695 2.70773 2.88395 2.58107 3.08195L0.554399 6.12895C0.427733 6.32695 0.4784 6.55795 0.681066 6.68995L2.82173 8.14195C2.77107 8.41695 2.73307 8.71395 2.73307 8.99995C2.73307 9.28595 2.7584 9.58295 2.80907 9.85795L0.668399 11.31C0.478399 11.442 0.427733 11.684 0.541733 11.871L2.5684 14.918C2.69507 15.116 2.96107 15.182 3.18907 15.116L5.70973 14.236C6.24173 14.588 6.79907 14.874 7.41973 15.094L7.79973 17.426C7.8504 17.646 8.05306 17.8 8.3064 17.8H12.3597C12.6131 17.8 12.8284 17.646 12.8537 17.426L13.2337 15.094C13.8544 14.874 14.4244 14.577 14.9437 14.236L17.4644 15.116C17.6924 15.193 17.9584 15.116 18.0851 14.918L20.1117 11.871C20.2384 11.673 20.1877 11.442 19.9851 11.31L17.8697 9.85795ZM10.3331 12.3C8.24307 12.3 6.53307 10.815 6.53307 8.99995C6.53307 7.18495 8.24307 5.69995 10.3331 5.69995C12.4231 5.69995 14.1331 7.18495 14.1331 8.99995C14.1331 10.815 12.4231 12.3 10.3331 12.3Z" fill="#1865F2"/>
</svg>
