<svg width="64" height="56" viewBox="0 0 64 56" fill="none" xmlns="http://www.w3.org/2000/svg">
<path d="M39.7145 17.1631C39.0325 17.1631 38.3785 17.5056 37.8962 18.1154C37.414 18.7251 37.1431 19.5521 37.1431 20.4144C37.1431 21.2767 37.414 22.1036 37.8962 22.7134C38.3785 23.3231 39.0325 23.6657 39.7145 23.6657C40.3965 23.6657 41.0505 23.3231 41.5328 22.7134C42.015 22.1036 42.2859 21.2767 42.2859 20.4144C42.2859 19.5521 42.015 18.7251 41.5328 18.1154C41.0505 17.5056 40.3965 17.1631 39.7145 17.1631Z" fill="#003AA6"/>
<path d="M35.776 10.528H28.224V0H35.776V10.528ZM35.776 56H28.224V45.472H35.776V56ZM51.968 31.304V24.696H64V31.304H51.968ZM0 24.696H12.032V31.304H0V24.696ZM15.5 18L6.72 10.528L12.032 5.88L20.5 13.5L15.5 18ZM51.968 50.12L45.312 43L49.5 38.5L57.28 45.472L51.968 50.12ZM12.032 50.12L6.72 45.472L15 38.5L19.5 44L12.032 50.12Z" fill="url(#paint0_linear)"/>
<path d="M35.776 10.528H28.224V0H35.776V10.528ZM35.776 56H28.224V45.472H35.776V56ZM51.968 31.304V24.696H64V31.304H51.968ZM0 24.696H12.032V31.304H0V24.696ZM15.5 18L6.72 10.528L12.032 5.88L20.5 13.5L15.5 18ZM51.968 50.12L45.312 43L49.5 38.5L57.28 45.472L51.968 50.12ZM12.032 50.12L6.72 45.472L15 38.5L19.5 44L12.032 50.12Z" fill="url(#paint1_linear)"/>
<path d="M31.9999 15C31.5501 15 31.1047 15.112 30.6891 15.3297C30.2735 15.5473 29.896 15.8663 29.5779 16.2684C29.2599 16.6706 29.0076 17.148 28.8354 17.6734C28.6633 18.1988 28.5747 18.762 28.5747 19.3307C28.5747 19.8994 28.6633 20.4626 28.8354 20.988C29.0076 21.5134 29.2599 21.9908 29.5779 22.393C29.896 22.7951 30.2735 23.1141 30.6891 23.3318C31.1047 23.5494 31.5501 23.6614 31.9999 23.6614C32.9083 23.6614 33.7795 23.2052 34.4218 22.393C35.0641 21.5808 35.425 20.4793 35.425 19.3307C35.425 18.1821 35.0641 17.0806 34.4218 16.2684C33.7795 15.4563 32.9083 15 31.9999 15Z" fill="#003AA6"/>
<path d="M24.2858 17.1631C23.6038 17.1631 22.9497 17.5056 22.4675 18.1154C21.9853 18.7251 21.7144 19.5521 21.7144 20.4144C21.7144 21.2767 21.9853 22.1036 22.4675 22.7134C22.9497 23.3231 23.6038 23.6657 24.2858 23.6657C24.9678 23.6657 25.6218 23.3231 26.1041 22.7134C26.5863 22.1036 26.8572 21.2767 26.8572 20.4144C26.8572 19.5521 26.5863 18.7251 26.1041 18.1154C25.6218 17.5056 24.9678 17.1631 24.2858 17.1631Z" fill="#003AA6"/>
<path d="M26.8569 27.9858C26.8601 27.4136 27.0421 26.8662 27.3633 26.463C27.6844 26.0598 28.1186 25.8335 28.5712 25.8335H35.4284C35.883 25.8335 36.3191 26.0619 36.6405 26.4683C36.962 26.8748 37.1426 27.4262 37.1426 28.001V34.5036C37.1425 35.1858 37.0581 35.8637 36.8924 36.5129C36.5128 37.984 35.7308 39.2358 34.687 40.0436C33.6431 40.8513 32.4057 41.1621 31.1969 40.92C29.9881 40.678 28.8871 39.8991 28.0917 38.7231C27.2963 37.547 26.8585 36.051 26.8569 34.5036V28.001V27.9858Z" fill="#003AA6"/>
<path d="M25.1429 28.001C25.1429 27.2099 25.3091 26.4707 25.6023 25.8335H21.7143C21.2596 25.8335 20.8236 26.0619 20.5021 26.4683C20.1806 26.8748 20 27.4262 20 28.001V33.4198C19.9998 34.307 20.1718 35.1807 20.501 35.9641C20.8303 36.7476 21.3066 37.4169 21.8882 37.9132C22.4698 38.4095 23.1389 38.7177 23.8367 38.8106C24.5345 38.9036 25.2397 38.7785 25.8903 38.4463C25.3969 37.2251 25.1407 35.8728 25.1429 34.5014V28.001Z" fill="#003AA6"/>
<path d="M38.8573 28.001V34.5036C38.8573 35.9233 38.5881 37.2628 38.1099 38.4463C38.7605 38.7785 39.4657 38.9036 40.1635 38.8106C40.8613 38.7177 41.5304 38.4095 42.112 37.9132C42.6936 37.4169 43.1699 36.7476 43.4991 35.9641C43.8283 35.1807 44.0004 34.307 44.0001 33.4198V28.001C44.0001 27.4262 43.8195 26.8748 43.498 26.4683C43.1766 26.0619 42.7405 25.8335 42.2859 25.8335H38.3979C38.6893 26.4707 38.8573 27.2099 38.8573 28.001Z" fill="#003AA6"/>
<defs>
<linearGradient id="paint0_linear" x1="58.5" y1="28.5" x2="32" y2="5.5" gradientUnits="userSpaceOnUse">
<stop stop-color="#76A608"/>
<stop offset="1" stop-color="#A9F200"/>
</linearGradient>
<linearGradient id="paint1_linear" x1="58.5" y1="28.5" x2="32" y2="5.5" gradientUnits="userSpaceOnUse">
<stop stop-color="#76A608"/>
<stop offset="1" stop-color="#A9F200"/>
</linearGradient>
</defs>
</svg>
