<svg width="32" height="30" viewBox="0 0 32 30" fill="none" xmlns="http://www.w3.org/2000/svg">
<path d="M19.1358 9.99316C19.5831 9.99327 20.0149 10.1564 20.349 10.4516C20.6832 10.7467 20.8965 11.1534 20.9484 11.5943L20.9611 11.8044V11.9511C19.4569 12.2342 18.0377 12.8548 16.8122 13.7655C15.5867 14.6763 14.5873 15.853 13.8903 17.2057C13.1933 18.5584 12.8173 20.0513 12.7909 21.5704C12.7646 23.0894 13.0886 24.5943 13.7382 25.97C12.2741 25.7711 10.9255 25.0726 9.92392 23.9945C8.92233 22.9164 8.33026 21.5259 8.24936 20.0618L8.24023 19.7158V11.8044C8.24029 11.3608 8.40444 10.9326 8.70153 10.6011C8.99862 10.2695 9.408 10.0577 9.85202 10.0058L10.0656 9.99316H19.1358Z" fill="black"/>
<path d="M22.8317 11.779C25.2503 11.779 27.4699 12.6285 29.2022 14.0431V11.8044L29.1912 11.5943C29.1393 11.1534 28.9261 10.7467 28.5919 10.4516C28.2578 10.1564 27.826 9.99327 27.3787 9.99316H22.2969C22.5634 10.4514 22.735 10.9767 22.7751 11.5345L22.7842 11.779H22.8317Z" fill="black"/>
<path d="M6.90376 9.99316C6.63822 10.4479 6.47623 10.9549 6.42916 11.4784L6.41456 11.8044V19.7158L6.42369 20.0962C6.47845 21.2608 6.77963 22.3602 7.27613 23.3474C6.5075 23.6677 5.67267 23.8004 4.84167 23.7344C4.01066 23.6684 3.20772 23.4057 2.50021 22.9682C1.79269 22.5307 1.20124 21.9312 0.77546 21.22C0.349684 20.5088 0.102004 19.7067 0.0531998 18.8809L0.0458984 18.5766V11.8044C0.0459574 11.3608 0.2101 10.9326 0.507194 10.6011C0.804287 10.2695 1.21367 10.0577 1.65769 10.0058L1.87125 9.99316H6.90376Z" fill="black"/>
<path d="M14.5963 0.893901C15.6744 0.893901 16.7083 1.31887 17.4707 2.07532C18.233 2.83176 18.6613 3.85773 18.6613 4.92751C18.6613 5.99729 18.233 7.02325 17.4707 7.7797C16.7083 8.53615 15.6744 8.96111 14.5963 8.96111C13.5179 8.96111 12.4837 8.53605 11.7212 7.77943C10.9587 7.02281 10.5303 5.99662 10.5303 4.9266C10.5303 3.85658 10.9587 2.83039 11.7212 2.07377C12.4837 1.31715 13.5179 0.89209 14.5963 0.89209V0.893901Z" fill="black"/>
<path d="M23.7008 2.0293C24.6272 2.0293 25.5156 2.39444 26.1706 3.0444C26.8256 3.69436 27.1936 4.5759 27.1936 5.49508C27.1936 6.41427 26.8256 7.2958 26.1706 7.94576C25.5156 8.59572 24.6272 8.96087 23.7008 8.96087C22.7745 8.96087 21.8861 8.59572 21.231 7.94576C20.576 7.2958 20.208 6.41427 20.208 5.49508C20.208 4.5759 20.576 3.69436 21.231 3.0444C21.8861 2.39444 22.7745 2.0293 23.7008 2.0293Z" fill="black"/>
<path d="M5.52211 2.0293C6.44847 2.0293 7.33688 2.39444 7.99191 3.0444C8.64694 3.69436 9.01493 4.5759 9.01493 5.49508C9.01493 6.41427 8.64694 7.2958 7.99191 7.94576C7.33688 8.59572 6.44847 8.96087 5.52211 8.96087C4.59576 8.96087 3.70735 8.59572 3.05232 7.94576C2.39729 7.2958 2.0293 6.41427 2.0293 5.49508C2.0293 4.5759 2.39729 3.69436 3.05232 3.0444C3.70735 2.39444 4.59576 2.0293 5.52211 2.0293Z" fill="black"/>
<path d="M31.0464 21.7413C31.0464 23.903 30.1809 25.9761 28.6405 27.5046C27.1001 29.0332 25.0108 29.8919 22.8323 29.8919C20.6537 29.8919 18.5645 29.0332 17.024 27.5046C15.4836 25.9761 14.6182 23.903 14.6182 21.7413C14.6182 19.5797 15.4836 17.5066 17.024 15.9781C18.5645 14.4495 20.6537 13.5908 22.8323 13.5908C25.0108 13.5908 27.1001 14.4495 28.6405 15.9781C30.1809 17.5066 31.0464 19.5797 31.0464 21.7413ZM23.7449 18.1189C23.7449 17.8787 23.6488 17.6484 23.4776 17.4785C23.3065 17.3087 23.0743 17.2133 22.8323 17.2133C22.5902 17.2133 22.3581 17.3087 22.1869 17.4785C22.0157 17.6484 21.9196 17.8787 21.9196 18.1189V20.8357H19.1816C18.9395 20.8357 18.7073 20.9311 18.5362 21.101C18.365 21.2708 18.2689 21.5012 18.2689 21.7413C18.2689 21.9815 18.365 22.2119 18.5362 22.3817C18.7073 22.5516 18.9395 22.647 19.1816 22.647H21.9196V25.3638C21.9196 25.604 22.0157 25.8343 22.1869 26.0042C22.3581 26.174 22.5902 26.2694 22.8323 26.2694C23.0743 26.2694 23.3065 26.174 23.4776 26.0042C23.6488 25.8343 23.7449 25.604 23.7449 25.3638V22.647H26.483C26.725 22.647 26.9572 22.5516 27.1283 22.3817C27.2995 22.2119 27.3956 21.9815 27.3956 21.7413C27.3956 21.5012 27.2995 21.2708 27.1283 21.101C26.9572 20.9311 26.725 20.8357 26.483 20.8357H23.7449V18.1189Z" fill="black"/>
</svg>
