<svg width="30" height="29" viewBox="0 0 30 29" fill="none" xmlns="http://www.w3.org/2000/svg">
<path d="M22.4742 9.65156C19.433 9.65156 17.0103 7.52188 17.0103 4.84844C17.0103 2.175 19.433 0 22.4742 0C25.5155 0 27.9897 2.175 27.9897 4.84844C27.9897 7.52188 25.5155 9.65156 22.4742 9.65156ZM12.4742 8.83594C10.2577 8.83594 8.45361 7.25 8.45361 5.30156C8.45361 3.35313 10.2577 1.76719 12.4742 1.76719C14.7423 1.76719 16.5464 3.35313 16.5464 5.30156C16.5464 7.25 14.7423 8.83594 12.4742 8.83594ZM30 17.1281C30 17.2641 30 17.4453 29.9485 17.5813H30V29H15V23.0188H7.01031V20.0281H0V12.9141C0 10.7391 2.01031 8.97188 4.48454 8.97188C6.23711 8.97188 7.68041 9.7875 8.45361 11.0563C9.48454 10.1047 10.8763 9.47031 12.4742 9.47031C14.6907 9.47031 16.5979 10.6031 17.4742 12.2797C18.8144 11.1922 20.567 10.5578 22.4742 10.5578C26.6495 10.5578 30 13.5031 30 17.1281ZM4.48454 8.42813C2.68041 8.42813 1.18557 7.15938 1.18557 5.52813C1.18557 3.94219 2.68041 2.62813 4.48454 2.62813C6.34021 2.62813 7.7835 3.94219 7.7835 5.52813C7.7835 7.15938 6.34021 8.42813 4.48454 8.42813Z" fill="black"/>
</svg>
